<svg xmlns="http://www.w3.org/2000/svg" viewBox="0 0 95 54"><title>Arriendo</title><g id="Capa_2" data-name="Capa 2"><g id="Capa_1-2" data-name="Capa 1"><path d="M88,48H7.05a1.44,1.44,0,0,1-1.44-1.43V1.43A1.44,1.44,0,0,1,7.05,0H88a1.43,1.43,0,0,1,1.44,1.43V46.58A1.43,1.43,0,0,1,88,48ZM8.49,45.16h78V2.86h-78Z"/><path d="M80,48H15a1.44,1.44,0,0,1-1.44-1.43V10.34A1.44,1.44,0,0,1,15,8.91H80a1.44,1.44,0,0,1,1.44,1.43V46.58A1.44,1.44,0,0,1,80,48Zm-63.5-2.85H78.53V11.77H16.47Z"/><path d="M87.54,54H7.46A7.44,7.44,0,0,1,0,46.6a1.43,1.43,0,0,1,1.44-1.43H93.56A1.43,1.43,0,0,1,95,46.6,7.44,7.44,0,0,1,87.54,54ZM3.11,48a4.6,4.6,0,0,0,4.35,3.11H87.54A4.6,4.6,0,0,0,91.89,48Z"/><path d="M48.82,7.31H46.18a1.43,1.43,0,1,1,0-2.85h2.64a1.43,1.43,0,1,1,0,2.85Z"/><path d="M50.9,41.32H44.1a1.43,1.43,0,0,1-1.44-1.43V34.05a4.84,4.84,0,0,1,9.68,0v5.84A1.43,1.43,0,0,1,50.9,41.32Zm-5.36-2.86h3.92V34.05a2,2,0,0,0-3.92,0Z"/><path d="M55.7,41.32H39.3a1.43,1.43,0,0,1-1.44-1.43V30.22H36.38a1.42,1.42,0,0,1-1.05-2.4L46.45,16.06a1.48,1.48,0,0,1,2.1,0L59.67,27.82a1.41,1.41,0,0,1,.27,1.54,1.43,1.43,0,0,1-1.32.86H57.14v9.67A1.43,1.43,0,0,1,55.7,41.32Zm-15-2.86H54.26V28.8a1.43,1.43,0,0,1,1.08-1.38l-7.84-8.3-7.84,8.3a1.43,1.43,0,0,1,1.08,1.38Z"/></g></g></svg>