<svg xmlns="http://www.w3.org/2000/svg" viewBox="0 0 66.04 65.93"><title>Avaluo</title><g id="Capa_2" data-name="Capa 2"><g id="Capa_1-2" data-name="Capa 1"><path d="M65.54,26.23,33.64.23a1,1,0,0,0-1.3,0l-32,26.1a1.07,1.07,0,0,0-.3,1.1,1,1,0,0,0,.9.7h3.7v36.8a1,1,0,0,0,1,1h54.6a1,1,0,0,0,1-1V28H65a.94.94,0,0,0,1-1A.79.79,0,0,0,65.54,26.23Zm-39.4,37.7V41.83h13.8v22.1Zm33.2,0H41.94V40.83a.94.94,0,0,0-1-1H25.14a.94.94,0,0,0-1,1v23.1H6.74V28h52.6ZM3.84,26,33,2.23,62.24,26Z"/><path d="M50.64,45.83a7.8,7.8,0,1,0-7.8-7.8A7.81,7.81,0,0,0,50.64,45.83Zm0-13.5a5.8,5.8,0,1,1-5.8,5.8A5.94,5.94,0,0,1,50.64,32.33Z"/><path d="M48.44,39.73l-.8,1A5.09,5.09,0,0,0,50.44,42v.91h.7v-.8a2.94,2.94,0,0,0,1.9-.7,2.42,2.42,0,0,0,.1-3.3,4.16,4.16,0,0,0-2-.8h0v-2.2a4.1,4.1,0,0,1,1.7.7l.8-1.1a5.91,5.91,0,0,0-2.4-.9v-.6h-.7v.6a2.67,2.67,0,0,0-1.8.7,2,2,0,0,0-.7,1.6,1.75,1.75,0,0,0,.6,1.5,4.89,4.89,0,0,0,1.9.8v2.3A3.46,3.46,0,0,1,48.44,39.73Zm2.7-1a1.7,1.7,0,0,1,.9.4.86.86,0,0,1,.3.6.92.92,0,0,1-.3.7,1.22,1.22,0,0,1-.9.3Zm-1.6-2.1a.73.73,0,0,1-.2-.6.91.91,0,0,1,.3-.7,1.14,1.14,0,0,1,.8-.3v2A1.88,1.88,0,0,1,49.54,36.63Z"/><path d="M15.34,45.83A7.8,7.8,0,1,0,7.54,38,7.81,7.81,0,0,0,15.34,45.83Zm0-13.5a5.8,5.8,0,1,1-5.8,5.8A5.94,5.94,0,0,1,15.34,32.33Z"/><path d="M13.14,39.73l-.8,1A5.09,5.09,0,0,0,15.14,42v.91h.7v-.8a2.94,2.94,0,0,0,1.9-.7,2.42,2.42,0,0,0,.1-3.3,4.16,4.16,0,0,0-2-.8h0v-2.2a4.1,4.1,0,0,1,1.7.7l.8-1.1a5.91,5.91,0,0,0-2.4-.9v-.6h-.7v.6a2.67,2.67,0,0,0-1.8.7,2,2,0,0,0-.7,1.6,1.75,1.75,0,0,0,.6,1.5,4.89,4.89,0,0,0,1.9.8v2.3A3.46,3.46,0,0,1,13.14,39.73Zm2.7-1a1.7,1.7,0,0,1,.9.4.86.86,0,0,1,.3.6.92.92,0,0,1-.3.7,1.22,1.22,0,0,1-.9.3Zm-1.6-2.1c-.2-.11-.2-.3-.2-.61a.92.92,0,0,1,.3-.7,1.14,1.14,0,0,1,.8-.3v2A1.45,1.45,0,0,1,14.24,36.63Z"/><path d="M21,48.13H9.54a1,1,0,0,0,0,2H21a1,1,0,0,0,0-2Z"/><path d="M21,53.52H9.54a1,1,0,0,0,0,2H21a1,1,0,0,0,0-2Z"/><path d="M21,58.83H9.54a1,1,0,0,0,0,2H21a1,1,0,1,0,0-2Z"/><path d="M56.44,48.13H45a1,1,0,0,0,0,2h11.5a.94.94,0,0,0,1-1A1,1,0,0,0,56.44,48.13Z"/><path d="M56.44,53.52H45a1,1,0,0,0,0,2h11.5a.94.94,0,0,0,1-1A1.1,1.1,0,0,0,56.44,53.52Z"/><path d="M56.44,58.83H45a1,1,0,0,0,0,2h11.5a.94.94,0,0,0,1-1A1,1,0,0,0,56.44,58.83Z"/><path d="M25.94,15.43A7.1,7.1,0,1,0,33,8.33,7.13,7.13,0,0,0,25.94,15.43Zm12.2,0a5.1,5.1,0,1,1-5.1-5.1A5.12,5.12,0,0,1,38.14,15.43Z"/></g></g></svg>