<svg xmlns="http://www.w3.org/2000/svg" viewBox="0 0 66.14 65.93"><title>Compra</title><g id="Capa_2" data-name="Capa 2"><g id="Capa_1-2" data-name="Capa 1"><path d="M65,38.43h-4.9v-2.2c0-5.4-4-9.9-8.8-9.9-.5,0-1,.1-1.5.1v-2.3h2.8a.94.94,0,0,0,1-1,1.05,1.05,0,0,0-.5-.9L27.44.23a1,1,0,0,0-1.3,0L.34,22.53a1.12,1.12,0,0,0-.3,1.1,1.1,1.1,0,0,0,1,.6h2.8v31.2a.94.94,0,0,0,1,1h31.7v4.2a5.36,5.36,0,0,0,5.4,5.3h18.8a5.36,5.36,0,0,0,5.4-5.3V39.43A1.08,1.08,0,0,0,65,38.43Zm-6.9-2.2v2.2H44.44v-2.2c0-4.4,3.1-7.9,6.8-7.9S58.14,31.92,58.14,36.23ZM26.84,2.32l23.1,19.9H3.74Zm-5.7,52.21V32h11.4v22.5Zm13.4,0V31a.94.94,0,0,0-1-1H20.14a.94.94,0,0,0-1,1v23.5H5.84V24.23h42v2.9a9.89,9.89,0,0,0-5.4,9.1v2.2h-4.9a.94.94,0,0,0-1,1v15.1ZM64,60.73a3.35,3.35,0,0,1-3.4,3.3H41.84a3.35,3.35,0,0,1-3.4-3.3V40.43h3.9v.4a2.72,2.72,0,0,0-1.7,2.5,2.7,2.7,0,1,0,5.4,0,2.72,2.72,0,0,0-1.7-2.5v-.4H58v.4a2.72,2.72,0,0,0-1.7,2.5,2.7,2.7,0,0,0,5.4,0,2.72,2.72,0,0,0-1.7-2.5v-.4h4ZM43.44,42.62h0a.71.71,0,1,1-.7.7A.68.68,0,0,1,43.44,42.62Zm16.4.7a.7.7,0,1,1-.7-.7h0A.69.69,0,0,1,59.84,43.32Z"/><path d="M51.24,45.23a8.7,8.7,0,1,0,8.8,8.7A8.79,8.79,0,0,0,51.24,45.23Zm0,15.5A6.71,6.71,0,1,1,58,54,6.79,6.79,0,0,1,51.24,60.73Z"/><path d="M51.84,53h0v-2.5a4.53,4.53,0,0,1,1.9.79l.9-1.2a6,6,0,0,0-2.8-1v-.7h-.9v.7a2.86,2.86,0,0,0-2.1.8,2.59,2.59,0,0,0-.8,1.9,2,2,0,0,0,.7,1.71,5,5,0,0,0,2.2.9V57a3.94,3.94,0,0,1-2.3-1.21l-1,1.21a6.21,6.21,0,0,0,3.3,1.4v1h.9v-1a3.29,3.29,0,0,0,2.2-.8,2.56,2.56,0,0,0,.8-1.9,2.13,2.13,0,0,0-.7-1.8A8.38,8.38,0,0,0,51.84,53Zm-.9-.21a2.85,2.85,0,0,1-1-.5,1,1,0,0,1,0-1.4,1.88,1.88,0,0,1,.9-.4v2.3Zm1.9,3.91a2.32,2.32,0,0,1-1,.4v-2.4a3.83,3.83,0,0,1,1.1.5,1,1,0,0,1-.1,1.5Z"/><path d="M26.84,18.92a5.16,5.16,0,0,0,5.2-5.2,5.22,5.22,0,0,0-5.2-5.19,5.16,5.16,0,0,0-5.2,5.19A5.1,5.1,0,0,0,26.84,18.92Zm0-8.39A3.15,3.15,0,0,1,30,13.72a3.22,3.22,0,0,1-3.2,3.2,3.15,3.15,0,0,1-3.2-3.2A3.09,3.09,0,0,1,26.84,10.53Z"/><path d="M15.94,32H9a.94.94,0,0,0-1,1v6.9a.94.94,0,0,0,1,1h6.9a.94.94,0,0,0,1-1V33A1,1,0,0,0,15.94,32Zm-1,6.9H10V34h4.9Z"/><path d="M15.94,42.12H9a1,1,0,0,0-1,1V50a1,1,0,0,0,1,1h6.9a1,1,0,0,0,1-1V43.12A1,1,0,0,0,15.94,42.12Zm-1,6.91H10V44.12h4.9Z"/></g></g></svg>