<svg xmlns="http://www.w3.org/2000/svg" viewBox="0 0 63.5 77.8"><title>Credito</title><g id="Capa_2" data-name="Capa 2"><g id="Capa_1-2" data-name="Capa 1"><path d="M63.5,3.3A3.33,3.33,0,0,0,60.2,0H3.3A3.33,3.33,0,0,0,0,3.3,3.35,3.35,0,0,0,3,6.6V39.5a3.31,3.31,0,0,0,.3,6.6H24.9v1.6a6.65,6.65,0,0,0,.9,3.4L18,72.8a1,1,0,0,0,.6,1.3c.1,0,.2.1.3.1a1,1,0,0,0,.9-.7l7.4-20.6a7.06,7.06,0,0,0,3.5,1.6V76.8a1,1,0,0,0,2,0V54.4a7.89,7.89,0,0,0,3.8-1.8L44,73.5a1,1,0,0,0,.9.7.37.37,0,0,0,.3-.1,1,1,0,0,0,.6-1.3l-8-22.2a7.27,7.27,0,0,0,.7-2.9V46.1H60.2a3.31,3.31,0,0,0,.3-6.6V6.6A3.35,3.35,0,0,0,63.5,3.3ZM2,3.3A1.32,1.32,0,0,1,3.3,2H60.2a1.32,1.32,0,0,1,1.3,1.3,1.32,1.32,0,0,1-1.3,1.3H3.3A1.32,1.32,0,0,1,2,3.3ZM58.5,39.5H5V6.6H58.5ZM36.6,47.7a4.8,4.8,0,0,1-9.6,0V46.1h9.7v1.6Zm24.9-4.9a1.32,1.32,0,0,1-1.3,1.3H3.3a1.3,1.3,0,0,1,0-2.6H60.2A1.32,1.32,0,0,1,61.5,42.8Z"/><path d="M31.6,23.9v6.9a3.6,3.6,0,0,1-2.3-3.3,1,1,0,0,0-2,0,5.67,5.67,0,0,0,4.3,5.4V34a1,1,0,0,0,2,0V33a5.57,5.57,0,0,0,4.7-5.4,5.41,5.41,0,0,0-4.7-5.4V15.3a3.54,3.54,0,0,1,2.5,3.3,1,1,0,0,0,2,0,5.47,5.47,0,0,0-4.5-5.4V12.1a1,1,0,0,0-2,0v1.1a5.47,5.47,0,0,0-4.5,5.4A5.29,5.29,0,0,0,31.6,23.9Zm4.7,3.6a3.52,3.52,0,0,1-2.7,3.4V24.1A3.63,3.63,0,0,1,36.3,27.5ZM31.6,15.2v6.7a3.49,3.49,0,0,1,0-6.7Z"/></g></g></svg>