<svg xmlns="http://www.w3.org/2000/svg" xmlns:xlink="http://www.w3.org/1999/xlink" viewBox="0 0 711.64 340.72"><defs><style>.cls-1,.cls-6{fill:none;}.cls-2{clip-path:url(#clip-path);}.cls-3{fill:#aaaaac;}.cls-4{fill:url(#Degradado_sin_nombre_16);}.cls-5{fill:url(#Degradado_sin_nombre_16-2);}.cls-6{stroke:#aaaaac;stroke-miterlimit:10;stroke-width:0.5px;}.cls-7{clip-path:url(#clip-path-3);}.cls-8{fill:url(#Degradado_sin_nombre_3);}.cls-9{clip-path:url(#clip-path-4);}.cls-10{fill:url(#Degradado_sin_nombre_4);}.cls-11{clip-path:url(#clip-path-5);}.cls-12{fill:url(#Degradado_sin_nombre_16-3);}.cls-13{clip-path:url(#clip-path-6);}.cls-14{fill:url(#Degradado_sin_nombre_16-4);}.cls-15{opacity:0.76;}.cls-16{clip-path:url(#clip-path-8);}.cls-17{fill:#fff;}.cls-18{clip-path:url(#clip-path-9);}.cls-19{fill:url(#Degradado_sin_nombre_7);}.cls-20{clip-path:url(#clip-path-10);}.cls-21{fill:url(#Degradado_sin_nombre_16-5);}.cls-22{clip-path:url(#clip-path-11);}.cls-23{fill:url(#Degradado_sin_nombre_16-6);}.cls-24{clip-path:url(#clip-path-12);}.cls-25{fill:url(#Degradado_sin_nombre_16-7);}.cls-26{clip-path:url(#clip-path-13);}.cls-27{fill:url(#Degradado_sin_nombre_16-8);}.cls-28{clip-path:url(#clip-path-14);}.cls-29{fill:url(#Degradado_sin_nombre_16-9);}.cls-30{clip-path:url(#clip-path-15);}.cls-31{fill:url(#Degradado_sin_nombre_16-10);}.cls-32{clip-path:url(#clip-path-16);}.cls-33{fill:url(#Degradado_sin_nombre_16-11);}.cls-34{clip-path:url(#clip-path-17);}.cls-35{fill:url(#Degradado_sin_nombre_16-12);}.cls-36{clip-path:url(#clip-path-18);}.cls-37{fill:url(#Degradado_sin_nombre_16-13);}</style><clipPath id="clip-path" transform="translate(-39.97 -117.93)"><rect class="cls-1" width="793.7" height="595.28"/></clipPath><linearGradient id="Degradado_sin_nombre_16" y1="595.28" x2="1" y2="595.28" gradientTransform="matrix(0, -2.08, -2.08, 0, 1921.99, 450.11)" gradientUnits="userSpaceOnUse"><stop offset="0" stop-color="#526c79"/><stop offset="0" stop-color="#526c79"/><stop offset="0.52" stop-color="#85a3b1"/><stop offset="0.98" stop-color="#526c79"/><stop offset="1" stop-color="#526c79"/></linearGradient><linearGradient id="Degradado_sin_nombre_16-2" y1="595.43" y2="595.43" gradientTransform="matrix(0, -2.08, -2.08, 0, 1341.75, 450.11)" xlink:href="#Degradado_sin_nombre_16"/><clipPath id="clip-path-3" transform="translate(-39.97 -117.93)"><polygon class="cls-1" points="292.68 203.14 292.68 272.98 319.79 294.53 319.95 181.74 292.68 203.14"/></clipPath><linearGradient id="Degradado_sin_nombre_3" y1="595.28" x2="1" y2="595.28" gradientTransform="matrix(0, -112.79, -112.79, 0, 67405.81, 176.6)" gradientUnits="userSpaceOnUse"><stop offset="0" stop-color="#60605d"/><stop offset="0.01" stop-color="#60605d"/><stop offset="0.51" stop-color="#d5d8db"/><stop offset="0.98" stop-color="#60605d"/><stop offset="1" stop-color="#60605d"/></linearGradient><clipPath id="clip-path-4" transform="translate(-39.97 -117.93)"><polygon class="cls-1" points="334.32 163.74 334.32 304.88 389.7 348.91 389.78 117.93 334.32 163.74"/></clipPath><linearGradient id="Degradado_sin_nombre_4" y1="595.28" x2="1" y2="595.28" gradientTransform="matrix(0, -230.98, -230.98, 0, 137820.03, 230.98)" gradientUnits="userSpaceOnUse"><stop offset="0" stop-color="#60605d"/><stop offset="0.01" stop-color="#60605d"/><stop offset="0.51" stop-color="#d5d8db"/><stop offset="0.98" stop-color="#60605d"/><stop offset="1" stop-color="#60605d"/></linearGradient><clipPath id="clip-path-5" transform="translate(-39.97 -117.93)"><polygon class="cls-1" points="404.92 348.91 454.36 306.5 454.67 163.97 404.69 117.93 404.92 348.91"/></clipPath><linearGradient id="Degradado_sin_nombre_16-3" y1="595.28" y2="595.28" gradientTransform="matrix(0, -230.98, -230.98, 0, 137887.66, 230.98)" xlink:href="#Degradado_sin_nombre_16"/><clipPath id="clip-path-6" transform="translate(-39.97 -117.93)"><polygon class="cls-1" points="470.41 294.61 497.84 273.67 497.68 204.92 470.88 183.44 470.41 294.61"/></clipPath><linearGradient id="Degradado_sin_nombre_16-4" y1="595.28" y2="595.28" gradientTransform="matrix(0, -111.16, -111.16, 0, 66617.91, 176.67)" xlink:href="#Degradado_sin_nombre_16"/><clipPath id="clip-path-8" transform="translate(-39.97 -117.93)"><rect class="cls-1" x="292.26" y="264.73" width="201.48" height="84.19"/></clipPath><clipPath id="clip-path-9" transform="translate(-39.97 -117.93)"><path class="cls-1" d="M314.11,266.28a372.62,372.62,0,0,0-39.21,8.4c-6.35,1.8-12.64,3.69-18.74,5.88a153.06,153.06,0,0,0-17.67,7.35q4.66-1.44,9.43-2.64t9.53-2.32c6.4-1.44,12.82-2.79,19.3-3.92,12.93-2.39,26-4.15,39.14-5.55a643.14,643.14,0,0,1,79.28-3.28c26.49.5,52.95,2.46,79.26,5.58s52.43,7.43,78.67,12.13a503.33,503.33,0,0,0-76.72-19.33,536.19,536.19,0,0,0-80.89-7.7q-4.61-.09-9.21-.09a462.65,462.65,0,0,0-72.17,5.49"/></clipPath><linearGradient id="Degradado_sin_nombre_7" y1="595.28" x2="1" y2="595.28" gradientTransform="matrix(314.61, 0, 0, -314.61, 198.51, 187437.93)" gradientUnits="userSpaceOnUse"><stop offset="0" stop-color="#526c79"/><stop offset="0.51" stop-color="#fff"/><stop offset="0.97" stop-color="#526c79"/><stop offset="1" stop-color="#526c79"/></linearGradient><clipPath id="clip-path-10" transform="translate(-39.97 -117.93)"><path class="cls-1" d="M191,370.52c-.31,0-4.16-.18-6.92-.18-.67,0-1,.12-1,.49s.25.37.49.37a11.67,11.67,0,0,1,2.08.18c2,.43,2.51,1.41,2.64,3.49s.12,3.67.12,13.21v1.29a.33.33,0,0,1-.37.37H162.07a.33.33,0,0,1-.37-.37v-1.29c0-9.54,0-11.26.12-13.21.12-2.15.61-3.18,2.27-3.49a9.2,9.2,0,0,1,1.53-.18c.24,0,.48-.13.48-.37s-.3-.49-1-.49c-1.84,0-5.69.18-6,.18s-4.16-.18-6.92-.18c-.67,0-1,.12-1,.49s.24.37.49.37a11.67,11.67,0,0,1,2.08.18c2,.43,2.51,1.41,2.63,3.49s.12,3.67.12,13.21v10.77c0,5.88,0,10.71-.31,13.28-.24,1.77-.55,3.12-1.77,3.37a9.67,9.67,0,0,1-1.83.24c-.37,0-.5.18-.5.37,0,.36.31.49,1,.49,1.84,0,5.69-.19,6-.19s4.16.19,7.53.19c.67,0,1-.19,1-.49s-.12-.37-.48-.37a27.17,27.17,0,0,1-2.76-.24c-1.83-.25-2.2-1.6-2.38-3.37-.31-2.57-.31-7.4-.31-13.28v-6.42c0-.31.18-.37.37-.37H188a.36.36,0,0,1,.37.37v6.42c0,5.88,0,10.71-.31,13.28-.24,1.77-.55,3.12-1.77,3.37a9.67,9.67,0,0,1-1.84.24c-.37,0-.49.18-.49.37,0,.36.31.49,1,.49,1.84,0,5.69-.19,6-.19s4.16.19,7.52.19c.68,0,1-.19,1-.49s-.12-.37-.49-.37a27.24,27.24,0,0,1-2.75-.24c-1.84-.25-2.2-1.6-2.39-3.37-.3-2.57-.3-7.4-.3-13.28V388.08c0-9.54,0-11.26.12-13.21.12-2.15.61-3.18,2.26-3.49a9.44,9.44,0,0,1,1.53-.18c.25,0,.49-.13.49-.37s-.3-.49-1-.49c-1.83,0-5.69.18-6,.18"/></clipPath><linearGradient id="Degradado_sin_nombre_16-5" y1="595.28" y2="595.28" gradientTransform="matrix(0, -46.26, -46.26, 0, 27671.72, 298.66)" xlink:href="#Degradado_sin_nombre_16"/><clipPath id="clip-path-11" transform="translate(-39.97 -117.93)"><path class="cls-1" d="M237,395.92l5.39-16.53c.3-.91.61-.91.91,0l5.82,16.53c.06.24.06.42-.25.42H237.13c-.18,0-.3-.12-.18-.42m5.51-24.05-13.89,38c-1.1,3.06-2.33,5.38-5.14,5.75-.49.06-1.35.12-1.78.12s-.55.12-.55.37.37.49,1.17.49c2.87,0,6.24-.19,6.91-.19s3.31.19,4.77.19c.55,0,.92-.13.92-.49s-.18-.37-.61-.37h-.61c-1,0-2.33-.55-2.33-1.77a12.91,12.91,0,0,1,.86-4.1L235.85,399a.64.64,0,0,1,.61-.49h13.16a.55.55,0,0,1,.55.36L255.86,414c.37,1,0,1.53-.37,1.65s-.43.18-.43.43.68.36,1.84.42c4.22.13,8.69.13,9.61.13.67,0,1.22-.13,1.22-.49s-.25-.37-.61-.37a7.82,7.82,0,0,1-2.45-.37c-1.28-.36-3.06-1.34-5.26-6.79-3.73-9.3-13.34-34.57-14.26-36.89-.73-1.9-1-2.21-1.35-2.21s-.61.37-1.34,2.39"/></clipPath><linearGradient id="Degradado_sin_nombre_16-6" y1="595.28" y2="595.28" gradientTransform="matrix(0, -47.11, -47.11, 0, 28250.62, 298.66)" xlink:href="#Degradado_sin_nombre_16"/><clipPath id="clip-path-12" transform="translate(-39.97 -117.93)"><path class="cls-1" d="M301.86,413.9c-1.89-.91-1.89-1.77-2.07-4.77-.07-.92-.07-8.5-.07-13.21v-3.49c0-.31.13-.43.37-.43.92,0,4,0,4.77.12a10.17,10.17,0,0,1,5.08,1.78c4.71,3.24,5.94,8.56,5.94,12.23,0,6.92-5.33,8.69-8.63,8.69a14.36,14.36,0,0,1-5.39-.92m-1.71-23.8c-.3-.12-.43-.24-.43-.67V373c0-.37.19-.55.74-.67a13.34,13.34,0,0,1,2.93-.31c6,0,8.26,5.45,8.26,10.53a9.43,9.43,0,0,1-2.2,6.18c-1.28,1.47-2.14,1.59-5.57,1.59a21.49,21.49,0,0,1-3.73-.25m-2.75-19.58c-.31,0-4.16-.18-6.92-.18-.67,0-1,.12-1,.49s.24.37.48.37a11.78,11.78,0,0,1,2.09.18c2,.43,2.5,1.41,2.63,3.49s.12,3.67.12,13.21v10.77c0,5.88,0,10.71-.31,13.28-.24,1.77-.55,3.12-1.77,3.37a9.67,9.67,0,0,1-1.84.24c-.36,0-.49.18-.49.37,0,.36.31.49,1,.49.92,0,2.33-.13,3.55-.13s2.32-.06,2.45-.06,2,.06,3.73.19,3.73.18,4.41.18c10.46,0,15.6-6.79,15.6-13.34,0-7.16-6.06-11.5-10.59-12.91,2.88-3,5.75-6,5.75-11,0-3.06-2.2-9.18-12.23-9.18-2.82,0-5.2.18-6.67.18"/></clipPath><linearGradient id="Degradado_sin_nombre_16-7" y1="595.28" y2="595.28" gradientTransform="matrix(0, -46.44, -46.44, 0, 27910.99, 298.85)" xlink:href="#Degradado_sin_nombre_16"/><clipPath id="clip-path-13" transform="translate(-39.97 -117.93)"><path class="cls-1" d="M356.86,370.52c-.3,0-4.16-.18-6.18-.18-.67,0-1,.12-1,.49s.24.37.49.37a8.16,8.16,0,0,1,1.89.24c1.35.31,2,1.35,2.08,3.43s.13,3.67.13,13.21v10.77c0,5.88,0,10.71-.31,13.28-.25,1.77-.55,3.12-1.78,3.37a9.57,9.57,0,0,1-1.83.24c-.37,0-.49.18-.49.37,0,.36.31.49,1,.49,1.83,0,5.69-.19,6-.19s4.17.19,7.53.19c.67,0,1-.19,1-.49s-.12-.37-.49-.37a27,27,0,0,1-2.75-.24c-1.84-.25-2.21-1.6-2.39-3.37-.31-2.57-.31-7.4-.31-13.28V388.08c0-9.54,0-11.26.13-13.21.12-2.15.61-3.18,2.26-3.49a9.32,9.32,0,0,1,1.53-.18c.25,0,.49-.13.49-.37s-.3-.49-1-.49c-1.83,0-5.69.18-6,.18"/></clipPath><linearGradient id="Degradado_sin_nombre_16-8" y1="595.28" y2="595.28" gradientTransform="matrix(0, -46.26, -46.26, 0, 27853.92, 298.66)" xlink:href="#Degradado_sin_nombre_16"/><clipPath id="clip-path-14" transform="translate(-39.97 -117.93)"><path class="cls-1" d="M391.55,370.65c-.12.48-1.34,5.75-1.34,6.36,0,.37.12.55.3.55s.43-.12.61-.61a10.93,10.93,0,0,1,1.05-1.9c1-1.47,2.44-1.9,6.24-2l9-.12v25.88c0,5.88,0,10.71-.31,13.28-.24,1.77-.54,3.12-1.77,3.37a9.57,9.57,0,0,1-1.83.24c-.37,0-.49.18-.49.37,0,.36.3.49,1,.49,1.83,0,5.69-.19,6-.19s4.16.19,7.53.19c.67,0,1-.19,1-.49s-.13-.37-.49-.37a27.41,27.41,0,0,1-2.76-.24c-1.83-.25-2.2-1.6-2.38-3.37-.31-2.57-.31-7.4-.31-13.28V373l7.71.12c5.87.13,7.34,1.53,7.53,3.37l.06.67c.06.86.18,1,.49,1s.43-.24.43-.79.18-4.9.18-6.73c0-.37,0-.74-.31-.74s-.79.18-1.71.31a25,25,0,0,1-4.34.3H399.69c-.73,0-3.06-.12-4.83-.3a11.4,11.4,0,0,1-2.69-.74c-.25,0-.5.8-.62,1.17"/></clipPath><linearGradient id="Degradado_sin_nombre_16-9" y1="595.28" y2="595.28" gradientTransform="matrix(0, -47.11, -47.11, 0, 28415.81, 298.66)" xlink:href="#Degradado_sin_nombre_16"/><clipPath id="clip-path-15" transform="translate(-39.97 -117.93)"><path class="cls-1" d="M460.75,395.92l5.38-16.53c.31-.91.61-.91.92,0l5.81,16.53c.07.24.07.42-.24.42H460.93c-.18,0-.3-.12-.18-.42m5.51-24.05-13.89,38c-1.1,3.06-2.33,5.38-5.14,5.75-.49.06-1.35.12-1.78.12s-.55.12-.55.37.37.49,1.16.49c2.88,0,6.24-.19,6.92-.19s3.3.19,4.77.19c.55,0,.92-.13.92-.49s-.19-.37-.61-.37h-.61c-1.05,0-2.33-.55-2.33-1.77a12.64,12.64,0,0,1,.86-4.1L459.65,399a.63.63,0,0,1,.61-.49h13.15a.53.53,0,0,1,.55.36l5.7,15.06c.36,1,0,1.53-.37,1.65s-.43.18-.43.43.67.36,1.84.42c4.22.13,8.68.13,9.6.13.68,0,1.23-.13,1.23-.49s-.25-.37-.61-.37a7.75,7.75,0,0,1-2.45-.37c-1.29-.36-3.06-1.34-5.27-6.79-3.73-9.3-13.33-34.57-14.25-36.89-.74-1.9-1-2.21-1.35-2.21s-.61.37-1.34,2.39"/></clipPath><linearGradient id="Degradado_sin_nombre_16-10" y1="595.28" y2="595.28" gradientTransform="matrix(0, -47.11, -47.11, 0, 28474.42, 298.66)" xlink:href="#Degradado_sin_nombre_16"/><clipPath id="clip-path-16" transform="translate(-39.97 -117.93)"><path class="cls-1" d="M525.66,413.9c-1.89-.91-1.89-1.77-2.08-4.77-.06-.92-.06-8.5-.06-13.21v-3.49c0-.31.12-.43.37-.43.91,0,4,0,4.77.12a10.17,10.17,0,0,1,5.08,1.78c4.71,3.24,5.93,8.56,5.93,12.23,0,6.92-5.32,8.69-8.62,8.69a14.33,14.33,0,0,1-5.39-.92M524,390.1c-.31-.12-.43-.24-.43-.67V373c0-.37.18-.55.73-.67a13.42,13.42,0,0,1,2.94-.31c6,0,8.26,5.45,8.26,10.53a9.48,9.48,0,0,1-2.2,6.18c-1.28,1.47-2.14,1.59-5.57,1.59a21.49,21.49,0,0,1-3.73-.25m-2.75-19.58c-.31,0-4.17-.18-6.92-.18-.67,0-1,.12-1,.49s.25.37.49.37a11.67,11.67,0,0,1,2.08.18c2,.43,2.51,1.41,2.63,3.49s.13,3.67.13,13.21v10.77c0,5.88,0,10.71-.31,13.28-.24,1.77-.55,3.12-1.77,3.37a9.77,9.77,0,0,1-1.84.24c-.37,0-.49.18-.49.37,0,.36.31.49,1,.49.92,0,2.32-.13,3.55-.13s2.32-.06,2.45-.06,1.95.06,3.73.19,3.73.18,4.4.18c10.47,0,15.61-6.79,15.61-13.34,0-7.16-6.06-11.5-10.59-12.91,2.88-3,5.75-6,5.75-11,0-3.06-2.2-9.18-12.24-9.18-2.81,0-5.2.18-6.66.18"/></clipPath><linearGradient id="Degradado_sin_nombre_16-11" y1="595.28" y2="595.28" gradientTransform="matrix(0, -46.44, -46.44, 0, 28134.79, 298.85)" xlink:href="#Degradado_sin_nombre_16"/><clipPath id="clip-path-17" transform="translate(-39.97 -117.93)"><path class="cls-1" d="M580.66,370.52c-.3,0-4.16-.18-6.18-.18-.67,0-1,.12-1,.49s.25.37.49.37a8.17,8.17,0,0,1,1.9.24c1.35.31,2,1.35,2.08,3.43s.12,3.67.12,13.21v10.77c0,5.88,0,10.71-.3,13.28-.25,1.77-.55,3.12-1.78,3.37a9.57,9.57,0,0,1-1.83.24c-.37,0-.49.18-.49.37,0,.36.3.49,1,.49,1.83,0,5.69-.19,6-.19s4.16.19,7.53.19c.67,0,1-.19,1-.49s-.13-.37-.49-.37a27.41,27.41,0,0,1-2.76-.24c-1.83-.25-2.2-1.6-2.38-3.37-.31-2.57-.31-7.4-.31-13.28V388.08c0-9.54,0-11.26.12-13.21.13-2.15.62-3.18,2.27-3.49a9.2,9.2,0,0,1,1.53-.18c.24,0,.49-.13.49-.37s-.31-.49-1-.49c-1.84,0-5.69.18-6,.18"/></clipPath><linearGradient id="Degradado_sin_nombre_16-12" y1="595.28" y2="595.28" gradientTransform="matrix(0, -46.26, -46.26, 0, 28077.71, 298.66)" xlink:href="#Degradado_sin_nombre_16"/><clipPath id="clip-path-18" transform="translate(-39.97 -117.93)"><path class="cls-1" d="M620,380.5c0,4.16,1.47,7.95,8,13.27l2.75,2.27c5.26,4.34,7,6.79,7,11,0,3.92-2.87,8.14-8.75,8.14-4.09,0-8.13-1.71-9-6.24a11,11,0,0,1-.18-2.26c0-.49-.07-.68-.43-.68s-.43.31-.49,1c-.06,1-.31,3.43-.31,6.49,0,1.65.06,1.89.92,2.32a18.47,18.47,0,0,0,8.2,1.65,16.07,16.07,0,0,0,9.24-2.57,12.66,12.66,0,0,0,5.2-10.15c0-4.9-1.71-8.69-8.93-14.38L631.44,389c-5.87-4.59-7.46-6.79-7.46-10.28,0-4.46,3.3-7.1,7.52-7.1,5.63,0,7.28,2.57,7.65,3.25a10.56,10.56,0,0,1,.8,3.06c.06.49.12.79.49.79s.43-.43.43-1.41c0-4.16.24-6.18.24-6.48s-.12-.43-.61-.43a9.72,9.72,0,0,1-2.14-.31,24.15,24.15,0,0,0-5.69-.61c-7.77,0-12.67,4.47-12.67,11"/></clipPath><linearGradient id="Degradado_sin_nombre_16-13" y1="595.28" y2="595.28" gradientTransform="matrix(0, -47.97, -47.97, 0, 29146.34, 299.52)" xlink:href="#Degradado_sin_nombre_16"/></defs><title>Recurso 1</title><g id="Capa_2" data-name="Capa 2"><g id="Capa_1-2" data-name="Capa 1"><g class="cls-2"><g class="cls-2"><path class="cls-3" d="M612.52,449.11c46-.11,93-.11,139.09,0" transform="translate(-39.97 -117.93)"/><path class="cls-4" d="M612.52,448.61c23-.05,46.26-.08,69.52-.08s46.53,0,69.58.08v1c-23-.05-46.31-.08-69.57-.08s-46.51,0-69.52.08v-1Z" transform="translate(-39.97 -117.93)"/><path class="cls-3" d="M166.46,449Q103,449,40,449.11H166.44s0-.05,0-.08" transform="translate(-39.97 -117.93)"/><path class="cls-5" d="M166.46,449v.5q-63.43,0-126.48.08v-1H166.44v.5L166,449l0-.09.49.09v0l.49.1v.06l-.07.42H40v-1q63-.06,126.49-.08h.6l-.11.6Z" transform="translate(-39.97 -117.93)"/><path class="cls-3" d="M190.56,458.13V454.8q-.85,3.6-4.37,3.6-5.08,0-5.09-8.5t5.3-8.56a4.2,4.2,0,0,1,3.77,1.9,5.75,5.75,0,0,1,.85,3.12h-1a4.74,4.74,0,0,0-.9-3,3.24,3.24,0,0,0-2.71-1.27q-4.37,0-4.37,7.72a13.69,13.69,0,0,0,.88,5.55,3.67,3.67,0,0,0,6.57.35,8.43,8.43,0,0,0,.85-4.07v-1h-4.53v-.79h5.5v8.26Z" transform="translate(-39.97 -117.93)"/><path class="cls-6" d="M190.56,458.13V454.8q-.85,3.6-4.37,3.6-5.08,0-5.09-8.5t5.3-8.56a4.2,4.2,0,0,1,3.77,1.9,5.75,5.75,0,0,1,.85,3.12h-1a4.74,4.74,0,0,0-.9-3,3.24,3.24,0,0,0-2.71-1.27q-4.37,0-4.37,7.72a13.69,13.69,0,0,0,.88,5.55,3.67,3.67,0,0,0,6.57.35,8.43,8.43,0,0,0,.85-4.07v-1h-4.53v-.79h5.5v8.26Z" transform="translate(-39.97 -117.93)"/><path class="cls-3" d="M199.18,458.13V441.62H204a4,4,0,0,1,2.91,1,5.07,5.07,0,0,1,.33,6.06A3.38,3.38,0,0,1,204.8,450v0a3.14,3.14,0,0,1,2.61,1.25,5.43,5.43,0,0,1,.58,2.84v1.74a4.15,4.15,0,0,0,.55,2.22h-1.11a5,5,0,0,1-.41-2.25V454.2a4.6,4.6,0,0,0-.65-2.75,3.18,3.18,0,0,0-2.66-1h-3.56v7.65Zm1-8.44h3.1q3.88,0,3.88-3.75a3.74,3.74,0,0,0-.86-2.6,3.13,3.13,0,0,0-2.4-.93h-3.72Z" transform="translate(-39.97 -117.93)"/><path class="cls-6" d="M199.18,458.13V441.62H204a4,4,0,0,1,2.91,1,5.07,5.07,0,0,1,.33,6.06A3.38,3.38,0,0,1,204.8,450v0a3.14,3.14,0,0,1,2.61,1.25,5.43,5.43,0,0,1,.58,2.84v1.74a4.15,4.15,0,0,0,.55,2.22h-1.11a5,5,0,0,1-.41-2.25V454.2a4.6,4.6,0,0,0-.65-2.75,3.18,3.18,0,0,0-2.66-1h-3.56v7.65Zm1-8.44h3.1q3.88,0,3.88-3.75a3.74,3.74,0,0,0-.86-2.6,3.13,3.13,0,0,0-2.4-.93h-3.72Z" transform="translate(-39.97 -117.93)"/><path class="cls-3" d="M217.05,441.62v12.14q0,3.86,3.61,3.86a3.41,3.41,0,0,0,2.68-1,4.13,4.13,0,0,0,.92-2.82V441.62h1v11.95a4.79,4.79,0,0,1-1.43,3.82,4.63,4.63,0,0,1-3.14,1q-4.57,0-4.58-4.83V441.62Z" transform="translate(-39.97 -117.93)"/><path class="cls-6" d="M217.05,441.62v12.14q0,3.86,3.61,3.86a3.41,3.41,0,0,0,2.68-1,4.13,4.13,0,0,0,.92-2.82V441.62h1v11.95a4.79,4.79,0,0,1-1.43,3.82,4.63,4.63,0,0,1-3.14,1q-4.57,0-4.58-4.83V441.62Z" transform="translate(-39.97 -117.93)"/><path class="cls-3" d="M233.39,458.13V441.62h4.28a4.2,4.2,0,0,1,3.7,1.62,5.19,5.19,0,0,1,.79,3,4.5,4.5,0,0,1-1.25,3.34,4.72,4.72,0,0,1-3.45,1.24h-3.1v7.35Zm1-8.14h3.19a3.58,3.58,0,0,0,2.55-.88,3.75,3.75,0,0,0,1.08-2.91,4,4,0,0,0-.91-2.79,3.31,3.31,0,0,0-2.58-1h-3.33Z" transform="translate(-39.97 -117.93)"/><path class="cls-6" d="M233.39,458.13V441.62h4.28a4.2,4.2,0,0,1,3.7,1.62,5.19,5.19,0,0,1,.79,3,4.5,4.5,0,0,1-1.25,3.34,4.72,4.72,0,0,1-3.45,1.24h-3.1v7.35Zm1-8.14h3.19a3.58,3.58,0,0,0,2.55-.88,3.75,3.75,0,0,0,1.08-2.91,4,4,0,0,0-.91-2.79,3.31,3.31,0,0,0-2.58-1h-3.33Z" transform="translate(-39.97 -117.93)"/><path class="cls-3" d="M254.45,441.34a4.38,4.38,0,0,1,3.89,1.88q1.43,2.05,1.43,6.65,0,8.53-5.32,8.53t-5.34-8.53q0-8.52,5.34-8.53m0,.79q-4.37,0-4.37,7.74a13.2,13.2,0,0,0,.91,5.57,3.57,3.57,0,0,0,3.46,2.18,3.5,3.5,0,0,0,3.31-1.9,12.65,12.65,0,0,0,1-5.85q0-7.74-4.35-7.74" transform="translate(-39.97 -117.93)"/><path class="cls-6" d="M254.45,441.34a4.38,4.38,0,0,1,3.89,1.88q1.43,2.05,1.43,6.65,0,8.53-5.32,8.53t-5.34-8.53Q249.11,441.35,254.45,441.34Zm0,.79q-4.37,0-4.37,7.74a13.2,13.2,0,0,0,.91,5.57,3.57,3.57,0,0,0,3.46,2.18,3.5,3.5,0,0,0,3.31-1.9,12.65,12.65,0,0,0,1-5.85Q258.8,442.13,254.45,442.13Z" transform="translate(-39.97 -117.93)"/><path class="cls-3" d="M278.7,458.13V441.62H283a4.2,4.2,0,0,1,3.7,1.62,5.19,5.19,0,0,1,.78,3,4.49,4.49,0,0,1-1.24,3.34,4.72,4.72,0,0,1-3.45,1.24h-3.1v7.35Zm1-8.14h3.19a3.59,3.59,0,0,0,2.55-.88,3.75,3.75,0,0,0,1.08-2.91,4,4,0,0,0-.91-2.79,3.31,3.31,0,0,0-2.58-1h-3.33Z" transform="translate(-39.97 -117.93)"/><path class="cls-6" d="M278.7,458.13V441.62H283a4.2,4.2,0,0,1,3.7,1.62,5.19,5.19,0,0,1,.78,3,4.49,4.49,0,0,1-1.24,3.34,4.72,4.72,0,0,1-3.45,1.24h-3.1v7.35Zm1-8.14h3.19a3.59,3.59,0,0,0,2.55-.88,3.75,3.75,0,0,0,1.08-2.91,4,4,0,0,0-.91-2.79,3.31,3.31,0,0,0-2.58-1h-3.33Z" transform="translate(-39.97 -117.93)"/><path class="cls-3" d="M295,458.13V441.62h4.84a4.07,4.07,0,0,1,2.91,1,5,5,0,0,1,.32,6.06,3.36,3.36,0,0,1-2.45,1.32v0a3.14,3.14,0,0,1,2.61,1.25,5.43,5.43,0,0,1,.58,2.84v1.74a4.16,4.16,0,0,0,.56,2.22h-1.11a4.87,4.87,0,0,1-.42-2.25V454.2a4.6,4.6,0,0,0-.65-2.75,3.18,3.18,0,0,0-2.66-1h-3.56v7.65Zm1-8.44H299q3.89,0,3.89-3.75a3.7,3.7,0,0,0-.87-2.6,3.12,3.12,0,0,0-2.39-.93h-3.73Z" transform="translate(-39.97 -117.93)"/><path class="cls-6" d="M295,458.13V441.62h4.84a4.07,4.07,0,0,1,2.91,1,5,5,0,0,1,.32,6.06,3.36,3.36,0,0,1-2.45,1.32v0a3.14,3.14,0,0,1,2.61,1.25,5.43,5.43,0,0,1,.58,2.84v1.74a4.16,4.16,0,0,0,.56,2.22h-1.11a4.87,4.87,0,0,1-.42-2.25V454.2a4.6,4.6,0,0,0-.65-2.75,3.18,3.18,0,0,0-2.66-1h-3.56v7.65Zm1-8.44H299q3.89,0,3.89-3.75a3.7,3.7,0,0,0-.87-2.6,3.12,3.12,0,0,0-2.39-.93h-3.73Z" transform="translate(-39.97 -117.93)"/><path class="cls-3" d="M316.87,441.34a4.37,4.37,0,0,1,3.88,1.88q1.44,2.05,1.44,6.65,0,8.53-5.32,8.53t-5.34-8.53q0-8.52,5.34-8.53m0,.79q-4.37,0-4.37,7.74a13.22,13.22,0,0,0,.9,5.57,3.57,3.57,0,0,0,3.47,2.18,3.48,3.48,0,0,0,3.3-1.9,12.52,12.52,0,0,0,1-5.85q0-7.74-4.34-7.74" transform="translate(-39.97 -117.93)"/><path class="cls-6" d="M316.87,441.34a4.37,4.37,0,0,1,3.88,1.88q1.44,2.05,1.44,6.65,0,8.53-5.32,8.53t-5.34-8.53Q311.53,441.35,316.87,441.34Zm0,.79q-4.37,0-4.37,7.74a13.22,13.22,0,0,0,.9,5.57,3.57,3.57,0,0,0,3.47,2.18,3.48,3.48,0,0,0,3.3-1.9,12.52,12.52,0,0,0,1-5.85Q321.21,442.13,316.87,442.13Z" transform="translate(-39.97 -117.93)"/><polygon class="cls-3" points="301.4 340.19 301.4 324.94 296.62 340.19 295.64 340.19 290.86 324.94 290.86 340.19 289.88 340.19 289.88 323.69 291.46 323.69 296.15 338.53 296.2 338.53 300.77 323.69 302.37 323.69 302.37 340.19 301.4 340.19"/><polygon class="cls-6" points="301.4 340.19 301.4 324.94 296.62 340.19 295.64 340.19 290.86 324.94 290.86 340.19 289.88 340.19 289.88 323.69 291.46 323.69 296.15 338.53 296.2 338.53 300.77 323.69 302.37 323.69 302.37 340.19 301.4 340.19"/><path class="cls-3" d="M355.36,441.34a4.37,4.37,0,0,1,3.88,1.88c1,1.37,1.43,3.59,1.43,6.65q0,8.53-5.31,8.53T350,449.87q0-8.52,5.34-8.53m0,.79q-4.38,0-4.37,7.74a13.22,13.22,0,0,0,.9,5.57,3.57,3.57,0,0,0,3.47,2.18,3.48,3.48,0,0,0,3.3-1.9,12.52,12.52,0,0,0,1-5.85q0-7.74-4.34-7.74" transform="translate(-39.97 -117.93)"/><path class="cls-6" d="M355.36,441.34a4.37,4.37,0,0,1,3.88,1.88c1,1.37,1.43,3.59,1.43,6.65q0,8.53-5.31,8.53T350,449.87Q350,441.35,355.36,441.34Zm0,.79q-4.38,0-4.37,7.74a13.22,13.22,0,0,0,.9,5.57,3.57,3.57,0,0,0,3.47,2.18,3.48,3.48,0,0,0,3.3-1.9,12.52,12.52,0,0,0,1-5.85Q359.7,442.13,355.36,442.13Z" transform="translate(-39.97 -117.93)"/><polygon class="cls-3" points="331.56 340.19 331.56 324.57 327.17 324.57 327.17 323.69 336.93 323.69 336.93 324.57 332.54 324.57 332.54 340.19 331.56 340.19"/><polygon class="cls-6" points="331.56 340.19 331.56 324.57 327.17 324.57 327.17 323.69 336.93 323.69 336.93 324.57 332.54 324.57 332.54 340.19 331.56 340.19"/><path class="cls-3" d="M388.71,441.34a4.38,4.38,0,0,1,3.89,1.88q1.42,2.05,1.43,6.65,0,8.53-5.32,8.53t-5.34-8.53q0-8.52,5.34-8.53m0,.79q-4.36,0-4.36,7.74a13.22,13.22,0,0,0,.9,5.57,3.57,3.57,0,0,0,3.46,2.18,3.5,3.5,0,0,0,3.31-1.9,12.65,12.65,0,0,0,1-5.85q0-7.74-4.35-7.74" transform="translate(-39.97 -117.93)"/><path class="cls-6" d="M388.71,441.34a4.38,4.38,0,0,1,3.89,1.88q1.42,2.05,1.43,6.65,0,8.53-5.32,8.53t-5.34-8.53Q383.37,441.35,388.71,441.34Zm0,.79q-4.36,0-4.36,7.74a13.22,13.22,0,0,0,.9,5.57,3.57,3.57,0,0,0,3.46,2.18,3.5,3.5,0,0,0,3.31-1.9,12.65,12.65,0,0,0,1-5.85Q393.06,442.13,388.71,442.13Z" transform="translate(-39.97 -117.93)"/><path class="cls-3" d="M401.87,458.13V441.62h4.83a4,4,0,0,1,2.91,1,5.07,5.07,0,0,1,.33,6.06,3.4,3.4,0,0,1-2.46,1.32v0a3.17,3.17,0,0,1,2.62,1.25,5.53,5.53,0,0,1,.58,2.84v1.74a4.15,4.15,0,0,0,.55,2.22h-1.11a4.87,4.87,0,0,1-.42-2.25V454.2a4.6,4.6,0,0,0-.64-2.75,3.2,3.2,0,0,0-2.66-1h-3.56v7.65Zm1-8.44h3.1c2.58,0,3.88-1.25,3.88-3.75a3.7,3.7,0,0,0-.87-2.6,3.1,3.1,0,0,0-2.39-.93h-3.72Z" transform="translate(-39.97 -117.93)"/><path class="cls-6" d="M401.87,458.13V441.62h4.83a4,4,0,0,1,2.91,1,5.07,5.07,0,0,1,.33,6.06,3.4,3.4,0,0,1-2.46,1.32v0a3.17,3.17,0,0,1,2.62,1.25,5.53,5.53,0,0,1,.58,2.84v1.74a4.15,4.15,0,0,0,.55,2.22h-1.11a4.87,4.87,0,0,1-.42-2.25V454.2a4.6,4.6,0,0,0-.64-2.75,3.2,3.2,0,0,0-2.66-1h-3.56v7.65Zm1-8.44h3.1c2.58,0,3.88-1.25,3.88-3.75a3.7,3.7,0,0,0-.87-2.6,3.1,3.1,0,0,0-2.39-.93h-3.72Z" transform="translate(-39.97 -117.93)"/><rect class="cls-3" x="390.09" y="323.69" width="0.97" height="16.51"/><rect class="cls-6" x="390.09" y="323.69" width="0.97" height="16.51"/><polygon class="cls-3" points="399.27 323.69 400.57 323.69 407.8 338.67 407.8 323.69 408.77 323.69 408.77 340.19 407.5 340.19 400.24 325.21 400.24 340.19 399.27 340.19 399.27 323.69"/><polygon class="cls-6" points="399.27 323.69 400.57 323.69 407.8 338.67 407.8 323.69 408.77 323.69 408.77 340.19 407.5 340.19 400.24 325.21 400.24 340.19 399.27 340.19 399.27 323.69"/><polygon class="cls-3" points="428.33 340.19 428.33 324.94 423.55 340.19 422.57 340.19 417.79 324.94 417.79 340.19 416.82 340.19 416.82 323.69 418.39 323.69 423.08 338.53 423.13 338.53 427.71 323.69 429.3 323.69 429.3 340.19 428.33 340.19"/><polygon class="cls-6" points="428.33 340.19 428.33 324.94 423.55 340.19 422.57 340.19 417.79 324.94 417.79 340.19 416.82 340.19 416.82 323.69 418.39 323.69 423.08 338.53 423.13 338.53 427.71 323.69 429.3 323.69 429.3 340.19 428.33 340.19"/><path class="cls-3" d="M482.29,441.34a4.37,4.37,0,0,1,3.88,1.88q1.44,2.05,1.44,6.65,0,8.53-5.32,8.53T477,449.87q0-8.52,5.34-8.53m0,.79q-4.37,0-4.37,7.74a13.22,13.22,0,0,0,.9,5.57,3.58,3.58,0,0,0,3.47,2.18,3.51,3.51,0,0,0,3.31-1.9,12.65,12.65,0,0,0,1-5.85q0-7.74-4.35-7.74" transform="translate(-39.97 -117.93)"/><path class="cls-6" d="M482.29,441.34a4.37,4.37,0,0,1,3.88,1.88q1.44,2.05,1.44,6.65,0,8.53-5.32,8.53T477,449.87Q477,441.35,482.29,441.34Zm0,.79q-4.37,0-4.37,7.74a13.22,13.22,0,0,0,.9,5.57,3.58,3.58,0,0,0,3.47,2.18,3.51,3.51,0,0,0,3.31-1.9,12.65,12.65,0,0,0,1-5.85Q486.64,442.13,482.29,442.13Z" transform="translate(-39.97 -117.93)"/><path class="cls-3" d="M495.44,458.13V441.62h4.44q4.32,0,4.32,4.12a3.75,3.75,0,0,1-.82,2.56,3.45,3.45,0,0,1-2.23,1.14v0a3.55,3.55,0,0,1,2.66,1.26,4.44,4.44,0,0,1,.93,2.9,4.31,4.31,0,0,1-1.26,3.28,4.78,4.78,0,0,1-3.46,1.21Zm1-9h3.17a4,4,0,0,0,2.66-.83,3.12,3.12,0,0,0,1-2.52q0-3.33-3.23-3.33h-3.59Zm0,8.25h3.26a4.63,4.63,0,0,0,3.09-.87,3.58,3.58,0,0,0,1-2.85q0-3.75-4.14-3.75h-3.22Z" transform="translate(-39.97 -117.93)"/><path class="cls-6" d="M495.44,458.13V441.62h4.44q4.32,0,4.32,4.12a3.75,3.75,0,0,1-.82,2.56,3.45,3.45,0,0,1-2.23,1.14v0a3.55,3.55,0,0,1,2.66,1.26,4.44,4.44,0,0,1,.93,2.9,4.31,4.31,0,0,1-1.26,3.28,4.78,4.78,0,0,1-3.46,1.21Zm1-9h3.17a4,4,0,0,0,2.66-.83,3.12,3.12,0,0,0,1-2.52q0-3.33-3.23-3.33h-3.59Zm0,8.25h3.26a4.63,4.63,0,0,0,3.09-.87,3.58,3.58,0,0,0,1-2.85q0-3.75-4.14-3.75h-3.22Z" transform="translate(-39.97 -117.93)"/><rect class="cls-3" x="472.58" y="323.69" width="0.97" height="16.51"/><rect class="cls-6" x="472.58" y="323.69" width="0.97" height="16.51"/><polygon class="cls-3" points="481.91 340.19 481.91 323.69 482.88 323.69 482.88 339.32 489.8 339.32 489.8 340.19 481.91 340.19"/><polygon class="cls-6" points="481.91 340.19 481.91 323.69 482.88 323.69 482.88 339.32 489.8 339.32 489.8 340.19 481.91 340.19"/><rect class="cls-3" x="497.31" y="323.69" width="0.97" height="16.51"/><rect class="cls-6" x="497.31" y="323.69" width="0.97" height="16.51"/><path class="cls-3" d="M555.45,458.13,553.88,453h-6.22l-1.57,5.13h-1l5.13-16.51h1.23l4.95,16.51Zm-1.75-5.92-2.85-9.62h0l-2.91,9.62Z" transform="translate(-39.97 -117.93)"/><path class="cls-6" d="M555.45,458.13,553.88,453h-6.22l-1.57,5.13h-1l5.13-16.51h1.23l4.95,16.51Zm-1.75-5.92-2.85-9.62h0l-2.91,9.62Z" transform="translate(-39.97 -117.93)"/><path class="cls-3" d="M563.29,458.13V441.62h4.83a4,4,0,0,1,2.91,1,5.07,5.07,0,0,1,.33,6.06,3.38,3.38,0,0,1-2.45,1.32v0a3.14,3.14,0,0,1,2.61,1.25,5.43,5.43,0,0,1,.58,2.84v1.74a4.15,4.15,0,0,0,.55,2.22h-1.11a5,5,0,0,1-.41-2.25V454.2a4.6,4.6,0,0,0-.65-2.75,3.2,3.2,0,0,0-2.66-1h-3.56v7.65Zm1-8.44h3.1q3.89,0,3.88-3.75a3.74,3.74,0,0,0-.86-2.6,3.13,3.13,0,0,0-2.4-.93h-3.72Z" transform="translate(-39.97 -117.93)"/><path class="cls-6" d="M563.29,458.13V441.62h4.83a4,4,0,0,1,2.91,1,5.07,5.07,0,0,1,.33,6.06,3.38,3.38,0,0,1-2.45,1.32v0a3.14,3.14,0,0,1,2.61,1.25,5.43,5.43,0,0,1,.58,2.84v1.74a4.15,4.15,0,0,0,.55,2.22h-1.11a5,5,0,0,1-.41-2.25V454.2a4.6,4.6,0,0,0-.65-2.75,3.2,3.2,0,0,0-2.66-1h-3.56v7.65Zm1-8.44h3.1q3.89,0,3.88-3.75a3.74,3.74,0,0,0-.86-2.6,3.13,3.13,0,0,0-2.4-.93h-3.72Z" transform="translate(-39.97 -117.93)"/><rect class="cls-3" x="540.42" y="323.69" width="0.97" height="16.51"/><rect class="cls-6" x="540.42" y="323.69" width="0.97" height="16.51"/><path class="cls-3" d="M594.54,441.34a4.38,4.38,0,0,1,3.89,1.88q1.43,2.05,1.43,6.65,0,8.53-5.32,8.53t-5.34-8.53q0-8.52,5.34-8.53m0,.79q-4.37,0-4.36,7.74a13.22,13.22,0,0,0,.9,5.57,3.57,3.57,0,0,0,3.46,2.18,3.5,3.5,0,0,0,3.31-1.9,12.65,12.65,0,0,0,1-5.85q0-7.74-4.35-7.74" transform="translate(-39.97 -117.93)"/><path class="cls-6" d="M594.54,441.34a4.38,4.38,0,0,1,3.89,1.88q1.43,2.05,1.43,6.65,0,8.53-5.32,8.53t-5.34-8.53Q589.2,441.35,594.54,441.34Zm0,.79q-4.37,0-4.36,7.74a13.22,13.22,0,0,0,.9,5.57,3.57,3.57,0,0,0,3.46,2.18,3.5,3.5,0,0,0,3.31-1.9,12.65,12.65,0,0,0,1-5.85Q598.89,442.13,594.54,442.13Z" transform="translate(-39.97 -117.93)"/></g><g class="cls-7"><rect class="cls-8" x="252.7" y="63.81" width="27.27" height="112.79"/></g><g class="cls-9"><rect class="cls-10" x="294.34" width="55.47" height="230.98"/></g><g class="cls-11"><rect class="cls-12" x="364.72" width="49.98" height="230.98"/></g><g class="cls-13"><rect class="cls-14" x="430.44" y="65.51" width="27.42" height="111.16"/></g><g class="cls-2"><g class="cls-15"><g class="cls-16"><path class="cls-17" d="M404.76,348.91H389.54c-56.73-44.34-42.8-33.22-94-73.31-7.13-5.58-1.23-2.85,4.25-4.2l97.64-6.67,90.88,7c9.05,0,4,.34,4.28,5.93l.6-.11c-48.84,37.63-41.7,31.76-88.44,71.38" transform="translate(-39.97 -117.93)"/></g></g></g><g class="cls-18"><rect class="cls-19" x="198.51" y="142.86" width="314.61" height="27.12"/></g><g class="cls-20"><rect class="cls-21" x="111.26" y="252.41" width="48.22" height="46.26"/></g><g class="cls-22"><rect class="cls-23" x="181.13" y="251.55" width="46.62" height="47.11"/></g><g class="cls-24"><rect class="cls-25" x="249.53" y="252.41" width="31.63" height="46.44"/></g><g class="cls-26"><rect class="cls-27" x="309.73" y="252.41" width="15.66" height="46.26"/></g><g class="cls-28"><rect class="cls-29" x="350.23" y="251.55" width="38.79" height="47.11"/></g><g class="cls-30"><rect class="cls-31" x="404.93" y="251.55" width="46.63" height="47.11"/></g><g class="cls-32"><rect class="cls-33" x="473.33" y="252.41" width="31.63" height="46.44"/></g><g class="cls-34"><rect class="cls-35" x="533.53" y="252.41" width="15.67" height="46.26"/></g><g class="cls-36"><rect class="cls-37" x="578.56" y="251.55" width="23.56" height="47.97"/></g></g></g></g></svg>