<svg xmlns="http://www.w3.org/2000/svg" viewBox="0 0 27.4 27.42"><title>Otrer</title><g id="Capa_2" data-name="Capa 2"><g id="Capa_1-2" data-name="Capa 1"><path d="M9.16,12.62H9a1.1,1.1,0,0,0,0,2.2h.19a1.1,1.1,0,0,0,0-2.2h0"/><path d="M13.79,12.62H13.6a1.1,1.1,0,0,0,0,2.2h.19a1.1,1.1,0,0,0,0-2.2"/><path d="M18.43,12.62h-.19a1.1,1.1,0,1,0,0,2.2h.19a1.1,1.1,0,0,0,0-2.2h0"/><path d="M13.7,0a13.7,13.7,0,1,0,13.7,13.7v0A13.72,13.72,0,0,0,13.7,0m0,25.49A11.79,11.79,0,1,1,25.49,13.7,11.79,11.79,0,0,1,13.7,25.49h0"/></g></g></svg>