<svg xmlns="http://www.w3.org/2000/svg" viewBox="0 0 68.11 64"><title>Representante</title><g id="Capa_2" data-name="Capa 2"><g id="Capa_1-2" data-name="Capa 1"><path d="M68.09,61.72l-2.28-16a10.05,10.05,0,0,0-7-8.14l-7.68-2.37-2.06-2.06V29.92A13.65,13.65,0,0,0,51,25a8,8,0,0,0,1.78-3.32,6.83,6.83,0,0,0-.22-5.28c.23-1.88.58-4.79.58-5.43,0-6.79-6.75-11-13-11C32.25,0,29.93,4.31,29.33,6a8.35,8.35,0,0,0-2.22,5c0,.64.35,3.55.58,5.43a6.83,6.83,0,0,0-.22,5.28A8.12,8.12,0,0,0,29.24,25a13.88,13.88,0,0,0,1.55,4.35L16.11,19.6l-6,4V20h-4v6.26L0,30.34l2.22,3.32L4.11,32.4V42h-3v2H14.84a10.06,10.06,0,0,0-.43,1.74l-2.28,16a2,2,0,0,0,2,2.28h52a2,2,0,0,0,2-2.28ZM29.39,21.15c-.57-2-.35-3.69.39-4.07,0,0-.67-5.36-.67-6.08,0-2,2-4,2-4s1-5,9-5c5,0,11,3.33,11,9,0,.72-.68,6.08-.68,6.08.75.38,1,2.1.39,4.07C50.16,23.42,49.11,24,49.11,24a11.33,11.33,0,0,1-2,5.3v5.78a2,2,0,0,1-.7,1.52L40.11,42l-6.3-5.4a2,2,0,0,1-.7-1.52V29.3a11.33,11.33,0,0,1-2-5.3S30.06,23.42,29.39,21.15ZM30,33.66,31.11,32v1.17l-2.06,2.07-.94.28V32.4ZM14.11,42V33h-6v9h-2V31.07l10-6.67,10,6.67v5.07l-3,.92V33h-6v6h1.45a10,10,0,0,0-2.79,3Zm0,20,2.28-16A8,8,0,0,1,22,39.51L30.11,37l2-2v1l-1,2a40.07,40.07,0,0,0,3.08,15.39L36.11,58l1-5,2-5-2-4,3-2,3,2-2,4,2,5,1,5L46,53.39A40.07,40.07,0,0,0,49.11,38l-1-2V35l2,2,8.15,2.51A8,8,0,0,1,63.83,46l2.28,16Z"/></g></g></svg>