<svg xmlns="http://www.w3.org/2000/svg" viewBox="0 0 93.43 98"><title>Seguro</title><g id="Capa_2" data-name="Capa 2"><g id="Capa_1-2" data-name="Capa 1"><path d="M20.63,23.28A11.64,11.64,0,1,0,9,11.64H9A11.66,11.66,0,0,0,20.63,23.28ZM20.63,5A6.64,6.64,0,1,1,14,11.64h0A6.66,6.66,0,0,1,20.63,5Z"/><path d="M2.8,28.92A11.11,11.11,0,0,0,.07,37.57L2.55,56.21a9.72,9.72,0,0,0,4.91,7.4l4,29.23A5.83,5.83,0,0,0,17.23,98h6.63a5.8,5.8,0,0,0,5.83-5.17l1.9-17.9,3.92-30L40,48.61a7,7,0,0,0,8.78.1L62,38.33a7.07,7.07,0,0,0,1.73-9.25,7,7,0,0,0-9.62-2.3,7.25,7.25,0,0,0-.67.46l-8.92,7-9-7.43A7,7,0,0,0,31,25.21h-4.1a2.9,2.9,0,0,0-2.24,1.11L20.6,31.43l-4.08-5.09a2.91,2.91,0,0,0-2.29-1.11H11A11.06,11.06,0,0,0,2.8,28.92Zm3.73,3.33a6,6,0,0,1,4.51-2h2.14L17.78,36a3.53,3.53,0,0,0,5,.55,3.18,3.18,0,0,0,.55-.55l4.61-5.75h3.16a2,2,0,0,1,1.26.46L42.9,39.4a2.5,2.5,0,0,0,3.14,0l10.51-8.28a2,2,0,0,1,2.94.57,2.11,2.11,0,0,1-.62,2.7L45.69,44.81a2,2,0,0,1-2.5,0l-7.94-6.56a2.48,2.48,0,0,0-3.51.34,2.57,2.57,0,0,0-.56,1.26L26.63,74.34,24.69,92.28a.81.81,0,0,1-.81.72H17.23a.84.84,0,0,1-.82-.78L12.23,61.58a2.48,2.48,0,0,0-1.61-2,4.78,4.78,0,0,1-3.1-4L5,37A6,6,0,0,1,6.53,32.25Z"/><path d="M45.57,98H84.15a2.49,2.49,0,0,0,2.54-2.46V67.93l2.67,2.13a2.5,2.5,0,1,0,3.12-3.91l-26-20.76a2.5,2.5,0,0,0-3.12,0l-26,20.76a2.5,2.5,0,0,0,3.12,3.91l2.67-2.13V95.5A2.5,2.5,0,0,0,45.57,98ZM64.86,50.54l16.83,13.4V93H48.07V63.94Z"/><path d="M56.69,78.09l4.07,4.07a2.5,2.5,0,0,0,3.54,0h0L73,73.48A2.5,2.5,0,0,0,69.46,70l-6.91,6.91-2.3-2.3a2.5,2.5,0,0,0-3.56,3.48Z"/></g></g></svg>