<svg xmlns="http://www.w3.org/2000/svg" viewBox="0 0 97.99 88"><title>Venta</title><g id="Capa_2" data-name="Capa 2"><g id="Capa_1-2" data-name="Capa 1"><path d="M78,26.31V7.68a2.5,2.5,0,0,0-2.5-2.5H64.2a2.5,2.5,0,0,0-2.5,2.5V11L50.7.68a2.48,2.48,0,0,0-3.42,0L.79,44.37A2.5,2.5,0,0,0,2.5,48.69H14.83V83H6a2.5,2.5,0,0,0,0,5H92a2.5,2.5,0,0,0,0-5H83.17V48.69H95.5A2.51,2.51,0,0,0,98,46.18a2.47,2.47,0,0,0-.78-1.81Zm2.67,17.38a2.5,2.5,0,0,0-2.5,2.5V83H19.83V46.19a2.5,2.5,0,0,0-2.5-2.5H8.81L49,5.92,62.49,18.6a2.51,2.51,0,0,0,4.21-1.82v-6.6H73V27.39a2.48,2.48,0,0,0,.79,1.82l15.4,14.48Z"/><path d="M61.81,39.32a2.49,2.49,0,0,0-3.5.47L35.73,69.31a2.5,2.5,0,1,0,4,3L62.27,42.83a2.51,2.51,0,0,0-.46-3.51Z"/><path d="M60.62,56.59A8.35,8.35,0,0,0,52.26,65v1.82a8.37,8.37,0,0,0,8.36,8.36h0A8.38,8.38,0,0,0,69,66.79V65a8.37,8.37,0,0,0-8.33-8.41ZM64,66.74a3.38,3.38,0,0,1-3.36,3.36h0a3.37,3.37,0,0,1-3.36-3.36V65A3.37,3.37,0,0,1,64,65Z"/><path d="M37.38,55.54a8.38,8.38,0,0,0,8.36-8.36V45.39a8.37,8.37,0,0,0-16.73,0v1.79a8.37,8.37,0,0,0,8.36,8.36ZM34,47.18V45.39a3.37,3.37,0,0,1,6.73,0v1.79a3.38,3.38,0,0,1-3.36,3.36h0A3.37,3.37,0,0,1,34,47.18Z"/></g></g></svg>